<?xml version="1.0" standalone="no"?>
<!DOCTYPE svg PUBLIC "-//W3C//DTD SVG 20010904//EN"
 "http://www.w3.org/TR/2001/REC-SVG-20010904/DTD/svg10.dtd">
<svg version="1.0" xmlns="http://www.w3.org/2000/svg"
 width="339.000000pt" height="339.000000pt" viewBox="0 0 339.000000 339.000000"
 preserveAspectRatio="xMidYMid meet">
<metadata>
Created by potrace 1.14, written by Peter Selinger 2001-2017
</metadata>
<g transform="translate(0.000000,339.000000) scale(0.100000,-0.100000)"
fill="#000000" stroke="none">
<path d="M1645 2608 c-65 -23 -100 -78 -92 -146 6 -52 31 -90 75 -111 l32 -16
0 -140 c3 -399 1 -427 -19 -442 -11 -7 -51 -42 -89 -78 -69 -65 -69 -65 -70
-120 0 -42 3 -53 13 -47 42 24 244 200 249 217 3 11 6 153 6 315 l0 295 36 28
c40 33 57 67 55 115 -1 56 -28 98 -77 121 -48 23 -74 25 -119 9z m89 -94 c18
-18 20 -47 6 -75 -21 -39 -100 -12 -100 34 0 48 61 74 94 41z"/>
<path d="M2002 2459 c-42 -27 -64 -70 -64 -124 0 -53 12 -77 56 -110 47 -36
111 -38 159 -5 48 33 65 66 63 120 -4 111 -123 177 -214 119z m118 -89 c21
-21 18 -42 -7 -72 -25 -29 -93 2 -93 43 0 46 64 65 100 29z"/>
<path d="M1316 2360 c-145 -45 -114 -270 37 -270 111 0 178 103 129 199 -31
61 -101 91 -166 71z m72 -96 c37 -26 26 -80 -18 -89 -37 -7 -60 11 -60 50 0
50 36 69 78 39z"/>
<path d="M1902 2134 c-53 -22 -68 -84 -34 -136 16 -24 18 -50 16 -213 -1 -102
3 -185 8 -185 4 0 24 16 43 36 38 39 37 30 37 239 0 72 3 94 18 110 22 25 37
56 34 73 -1 6 -2 19 -3 27 -2 20 -38 52 -66 57 -13 3 -37 -1 -53 -8z"/>
<path d="M1420 2040 c-25 -25 -26 -65 -2 -95 15 -18 18 -41 17 -134 0 -68 4
-111 10 -111 6 0 25 14 43 31 33 30 34 32 34 116 1 52 7 98 15 114 34 69 -62
134 -117 79z"/>
<path d="M1364 1406 c-18 -13 -19 -29 -21 -228 -1 -117 0 -223 3 -234 5 -30
32 -38 61 -19 22 15 28 15 69 -1 31 -12 59 -15 94 -11 103 12 161 76 165 179
3 83 -8 121 -51 163 -58 59 -116 73 -204 51 -24 -7 -25 -5 -26 40 -2 67 -43
94 -90 60z m207 -205 c3 -1 18 -12 33 -26 71 -66 -10 -191 -97 -148 -36 18
-61 75 -49 111 10 31 64 72 90 67 9 -2 20 -4 23 -4z"/>
<path d="M2734 1410 c-12 -4 -23 -14 -26 -22 -3 -7 -5 -113 -4 -236 1 -204 3
-224 19 -234 13 -7 25 -5 43 7 23 15 28 15 70 -1 86 -33 190 -1 235 73 81 130
-4 310 -149 318 -26 2 -62 -3 -79 -10 -36 -15 -36 -15 -33 42 1 20 -6 39 -19
52 -23 23 -26 24 -57 11z m224 -222 c42 -21 49 -104 11 -144 -40 -43 -120 -29
-148 25 -15 27 -14 73 2 94 32 42 81 51 135 25z"/>
<path d="M373 1398 c-28 -13 -28 -19 -28 -257 1 -188 2 -204 20 -217 25 -19
60 -18 79 2 12 11 16 36 16 97 l0 82 67 -2 c38 0 75 -2 83 -2 12 -1 15 -16 14
-81 -2 -71 1 -82 19 -95 28 -19 52 -19 71 1 14 13 16 49 16 234 l0 220 -24 15
c-18 12 -30 13 -49 6 -30 -11 -37 -33 -36 -106 2 -97 8 -90 -78 -89 l-78 0 -5
87 c-3 47 -9 90 -15 95 -17 17 -49 21 -72 10z"/>
<path d="M1813 1400 c-28 -11 -25 11 -27 -248 -1 -231 -1 -232 53 -238 50 -6
58 16 58 149 0 66 4 116 9 115 9 -3 67 -75 162 -200 55 -72 92 -87 124 -50 13
14 15 52 14 233 -1 235 -4 249 -56 249 -46 0 -52 -18 -52 -155 0 -69 -4 -125
-8 -125 -4 0 -54 60 -109 134 -114 150 -120 155 -168 136z"/>
<path d="M966 1386 c-126 -47 -192 -181 -154 -310 17 -56 100 -141 153 -155
132 -36 260 25 304 145 47 123 8 234 -105 300 -54 32 -142 41 -198 20z m153
-113 c56 -42 79 -118 53 -172 -59 -122 -234 -107 -266 22 -29 118 117 221 213
150z"/>
<path d="M2386 1306 c-104 -39 -162 -166 -122 -266 19 -48 59 -92 100 -111
134 -61 278 32 279 181 1 77 -41 147 -111 188 -35 20 -103 24 -146 8z m110
-118 c39 -19 55 -79 32 -121 -17 -33 -39 -46 -79 -47 -95 -1 -126 129 -42 174
28 15 50 14 89 -6z"/>
</g>
</svg>
